<?xml version="1.0" encoding="UTF-8" standalone="no"?>
<svg
   viewBox="0 0 22 18"
   >
  <path
     d="M 11,0 C 6,0 1.73,3.11 0,7.5 1.73,11.89 6,15 11,15 c 0.36,0 0.72,0 1.08,-0.05 C 12.03,14.63 12,14.32 12,14 12,13.64 12.04,13.28 12.1,12.92 11.74,12.96 11.37,13 11,13 7.24,13 3.83,10.86 2.18,7.5 3.83,4.14 7.24,2 11,2 14.76,2 18.17,4.14 19.82,7.5 19.7,7.74 19.56,7.95 19.43,8.18 20.09,8.34 20.72,8.61 21.29,9 21.56,8.5 21.8,8 22,7.5 20.27,3.11 16,0 11,0 m 0,4.5 a 3,3 0 0 0 -3,3 3,3 0 0 0 3,3 3,3 0 0 0 3,-3 3,3 0 0 0 -3,-3 m 6,5.5 v 3 h -3 v 2 h 3 v 3 h 2 v -3 h 3 v -2 h -3 v -3 z"
     />
</svg>
