<?xml version="1.0" encoding="UTF-8" standalone="no"?>
<svg
   viewBox="0 0 18 20"
   >

  <path
     d="M 3,0 A 3,3 0 0 1 6,3 C 6,4.28 5.19,5.38 4.06,5.81 4.15,6.27 4.39,6.83 5,7.63 c 1,1.29 3,3.2 4,4.54 1,-1.34 3,-3.25 4,-4.54 0.61,-0.8 0.85,-1.36 0.94,-1.82 C 12.81,5.38 12,4.28 12,3 a 3,3 0 0 1 3,-3 3,3 0 0 1 3,3 C 18,4.32 17.14,5.45 15.95,5.85 15.87,6.37 15.64,7 15,7.83 c -1,1.34 -3,3.25 -4,4.55 -0.61,0.79 -0.85,1.35 -0.94,1.81 C 11.19,14.62 12,15.72 12,17 A 3,3 0 0 1 9,20 3,3 0 0 1 6,17 C 6,15.72 6.81,14.62 7.94,14.19 7.85,13.73 7.61,13.17 7,12.38 6,11.08 4,9.17 3,7.83 2.36,7 2.13,6.37 2.05,5.85 0.86,5.45 0,4.32 0,3 A 3,3 0 0 1 3,0 M 3,2 A 1,1 0 0 0 2,3 1,1 0 0 0 3,4 1,1 0 0 0 4,3 1,1 0 0 0 3,2 M 15,2 A 1,1 0 0 0 14,3 1,1 0 0 0 15,4 1,1 0 0 0 16,3 1,1 0 0 0 15,2 M 9,16 a 1,1 0 0 0 -1,1 1,1 0 0 0 1,1 1,1 0 0 0 1,-1 1,1 0 0 0 -1,-1 z"
     />
</svg>
